<mxfile host="65bd71144e">
    <diagram id="2DvRrIcsLT8HdpuMgZa1" name="Page-1">
        <mxGraphModel dx="1428" dy="974" grid="1" gridSize="10" guides="1" tooltips="1" connect="1" arrows="1" fold="1" page="1" pageScale="1" pageWidth="850" pageHeight="1100" math="0" shadow="0">
            <root>
                <mxCell id="0"/>
                <mxCell id="1" parent="0"/>
                <mxCell id="65" value="&lt;p style=&quot;margin:0px;margin-top:4px;margin-left:5px;text-align:left;&quot;&gt;&lt;b&gt;sd&lt;/b&gt;&amp;nbsp;email confirm&lt;/p&gt;" style="html=1;shape=mxgraph.sysml.package;overflow=fill;labelX=109.92;align=left;spacingLeft=5;verticalAlign=top;spacingTop=-3;" vertex="1" parent="1">
                    <mxGeometry x="1010" y="520" width="950" height="690" as="geometry"/>
                </mxCell>
                <mxCell id="22" value="&lt;p style=&quot;margin:0px;margin-top:4px;margin-left:5px;text-align:left;&quot;&gt;&lt;b&gt;sd&lt;/b&gt;&amp;nbsp;email registration&lt;/p&gt;" style="html=1;shape=mxgraph.sysml.package;overflow=fill;labelX=125;align=left;spacingLeft=5;verticalAlign=top;spacingTop=-3;" vertex="1" parent="1">
                    <mxGeometry x="20" y="520" width="790" height="840" as="geometry"/>
                </mxCell>
                <mxCell id="3" value="registration:ui" style="shape=umlLifeline;perimeter=lifelinePerimeter;whiteSpace=wrap;html=1;container=1;dropTarget=0;collapsible=0;recursiveResize=0;outlineConnect=0;portConstraint=eastwest;newEdgeStyle={&quot;curved&quot;:0,&quot;rounded&quot;:0};" parent="1" vertex="1">
                    <mxGeometry x="80" y="560" width="100" height="800" as="geometry"/>
                </mxCell>
                <mxCell id="4" value="" style="html=1;points=[[0,0,0,0,5],[0,1,0,0,-5],[1,0,0,0,5],[1,1,0,0,-5]];perimeter=orthogonalPerimeter;outlineConnect=0;targetShapes=umlLifeline;portConstraint=eastwest;newEdgeStyle={&quot;curved&quot;:0,&quot;rounded&quot;:0};" vertex="1" parent="3">
                    <mxGeometry x="45" y="70" width="10" height="710" as="geometry"/>
                </mxCell>
                <mxCell id="6" value="handler:server" style="shape=umlLifeline;perimeter=lifelinePerimeter;whiteSpace=wrap;html=1;container=1;dropTarget=0;collapsible=0;recursiveResize=0;outlineConnect=0;portConstraint=eastwest;newEdgeStyle={&quot;curved&quot;:0,&quot;rounded&quot;:0};" vertex="1" parent="1">
                    <mxGeometry x="220" y="560" width="100" height="800" as="geometry"/>
                </mxCell>
                <mxCell id="9" value="" style="html=1;points=[[0,0,0,0,5],[0,1,0,0,-5],[1,0,0,0,5],[1,1,0,0,-5]];perimeter=orthogonalPerimeter;outlineConnect=0;targetShapes=umlLifeline;portConstraint=eastwest;newEdgeStyle={&quot;curved&quot;:0,&quot;rounded&quot;:0};" vertex="1" parent="6">
                    <mxGeometry x="45" y="110" width="10" height="670" as="geometry"/>
                </mxCell>
                <mxCell id="10" value="register()" style="html=1;verticalAlign=bottom;endArrow=block;curved=0;rounded=0;entryX=0;entryY=0;entryDx=0;entryDy=5;" edge="1" target="9" parent="1" source="4">
                    <mxGeometry relative="1" as="geometry">
                        <mxPoint x="375" y="675" as="sourcePoint"/>
                    </mxGeometry>
                </mxCell>
                <mxCell id="12" value="services[email]&lt;div&gt;:server&lt;/div&gt;" style="shape=umlLifeline;perimeter=lifelinePerimeter;whiteSpace=wrap;html=1;container=1;dropTarget=0;collapsible=0;recursiveResize=0;outlineConnect=0;portConstraint=eastwest;newEdgeStyle={&quot;curved&quot;:0,&quot;rounded&quot;:0};" vertex="1" parent="1">
                    <mxGeometry x="500" y="560" width="100" height="800" as="geometry"/>
                </mxCell>
                <mxCell id="13" value="" style="html=1;points=[[0,0,0,0,5],[0,1,0,0,-5],[1,0,0,0,5],[1,1,0,0,-5]];perimeter=orthogonalPerimeter;outlineConnect=0;targetShapes=umlLifeline;portConstraint=eastwest;newEdgeStyle={&quot;curved&quot;:0,&quot;rounded&quot;:0};" vertex="1" parent="12">
                    <mxGeometry x="45" y="270" width="10" height="510" as="geometry"/>
                </mxCell>
                <mxCell id="16" value="tables[sso]&lt;div&gt;:database&lt;/div&gt;" style="shape=umlLifeline;perimeter=lifelinePerimeter;whiteSpace=wrap;html=1;container=1;dropTarget=0;collapsible=0;recursiveResize=0;outlineConnect=0;portConstraint=eastwest;newEdgeStyle={&quot;curved&quot;:0,&quot;rounded&quot;:0};" vertex="1" parent="1">
                    <mxGeometry x="360" y="560" width="100" height="800" as="geometry"/>
                </mxCell>
                <mxCell id="17" value="" style="html=1;points=[[0,0,0,0,5],[0,1,0,0,-5],[1,0,0,0,5],[1,1,0,0,-5]];perimeter=orthogonalPerimeter;outlineConnect=0;targetShapes=umlLifeline;portConstraint=eastwest;newEdgeStyle={&quot;curved&quot;:0,&quot;rounded&quot;:0};" vertex="1" parent="16">
                    <mxGeometry x="45" y="150" width="10" height="80" as="geometry"/>
                </mxCell>
                <mxCell id="18" value="createTable()" style="html=1;verticalAlign=bottom;endArrow=block;curved=0;rounded=0;entryX=0;entryY=0;entryDx=0;entryDy=5;" edge="1" target="17" parent="1" source="9">
                    <mxGeometry relative="1" as="geometry">
                        <mxPoint x="320" y="715" as="sourcePoint"/>
                    </mxGeometry>
                </mxCell>
                <mxCell id="19" value="return link" style="html=1;verticalAlign=bottom;endArrow=open;dashed=1;endSize=8;curved=0;rounded=0;exitX=0;exitY=1;exitDx=0;exitDy=-5;" edge="1" source="17" parent="1" target="6">
                    <mxGeometry relative="1" as="geometry">
                        <mxPoint x="320" y="785" as="targetPoint"/>
                    </mxGeometry>
                </mxCell>
                <mxCell id="14" value="sendConfirmEmail(link)" style="html=1;verticalAlign=bottom;endArrow=open;curved=0;rounded=0;entryX=0;entryY=0;entryDx=0;entryDy=5;endFill=0;" edge="1" target="13" parent="1" source="9">
                    <mxGeometry relative="1" as="geometry">
                        <mxPoint x="460" y="835" as="sourcePoint"/>
                    </mxGeometry>
                </mxCell>
                <mxCell id="23" value="emailProvider" style="shape=umlLifeline;perimeter=lifelinePerimeter;whiteSpace=wrap;html=1;container=1;dropTarget=0;collapsible=0;recursiveResize=0;outlineConnect=0;portConstraint=eastwest;newEdgeStyle={&quot;curved&quot;:0,&quot;rounded&quot;:0};" vertex="1" parent="1">
                    <mxGeometry x="650" y="560" width="100" height="800" as="geometry"/>
                </mxCell>
                <mxCell id="24" value="" style="html=1;points=[[0,0,0,0,5],[0,1,0,0,-5],[1,0,0,0,5],[1,1,0,0,-5]];perimeter=orthogonalPerimeter;outlineConnect=0;targetShapes=umlLifeline;portConstraint=eastwest;newEdgeStyle={&quot;curved&quot;:0,&quot;rounded&quot;:0};" vertex="1" parent="23">
                    <mxGeometry x="45" y="310" width="10" height="50" as="geometry"/>
                </mxCell>
                <mxCell id="25" value="sendEmail" style="html=1;verticalAlign=bottom;startArrow=oval;endArrow=block;startSize=8;curved=0;rounded=0;entryX=0;entryY=0;entryDx=0;entryDy=5;" edge="1" target="24" parent="1" source="13">
                    <mxGeometry relative="1" as="geometry">
                        <mxPoint x="625" y="655" as="sourcePoint"/>
                    </mxGeometry>
                </mxCell>
                <mxCell id="26" value="returnStatus" style="html=1;verticalAlign=bottom;endArrow=open;dashed=1;endSize=8;curved=0;rounded=0;exitX=0;exitY=1;exitDx=0;exitDy=-5;exitPerimeter=0;" edge="1" parent="1" source="24" target="13">
                    <mxGeometry relative="1" as="geometry">
                        <mxPoint x="690" y="910" as="sourcePoint"/>
                        <mxPoint x="620" y="910" as="targetPoint"/>
                    </mxGeometry>
                </mxCell>
                <mxCell id="27" value="[condition1: email sent success]" style="endArrow=none;startArrow=none;endFill=0;startFill=0;endSize=8;html=1;verticalAlign=bottom;dashed=1;labelBackgroundColor=none;dashPattern=10 10;entryX=1;entryY=0.5;entryDx=0;entryDy=0;entryPerimeter=0;" edge="1" parent="1" target="22">
                    <mxGeometry width="160" relative="1" as="geometry">
                        <mxPoint x="20" y="940" as="sourcePoint"/>
                        <mxPoint x="180" y="940" as="targetPoint"/>
                    </mxGeometry>
                </mxCell>
                <mxCell id="28" value="returnStatus" style="html=1;verticalAlign=bottom;endArrow=open;dashed=1;endSize=8;curved=0;rounded=0;exitX=0;exitY=1;exitDx=0;exitDy=-5;exitPerimeter=0;" edge="1" parent="1" target="9">
                    <mxGeometry relative="1" as="geometry">
                        <mxPoint x="550" y="970" as="sourcePoint"/>
                        <mxPoint x="410" y="970" as="targetPoint"/>
                    </mxGeometry>
                </mxCell>
                <mxCell id="29" value="return" style="html=1;verticalAlign=bottom;endArrow=open;dashed=1;endSize=8;curved=0;rounded=0;entryX=0.003;entryY=0.692;entryDx=0;entryDy=0;entryPerimeter=0;" edge="1" parent="1" source="4" target="22">
                    <mxGeometry relative="1" as="geometry">
                        <mxPoint x="-20" y="1020" as="targetPoint"/>
                        <mxPoint x="110" y="1020" as="sourcePoint"/>
                    </mxGeometry>
                </mxCell>
                <mxCell id="5" value="register()" style="html=1;verticalAlign=bottom;startArrow=oval;endArrow=block;startSize=8;curved=0;rounded=0;entryX=0;entryY=0;entryDx=0;entryDy=5;exitX=-0.003;exitY=0.137;exitDx=0;exitDy=0;exitPerimeter=0;" edge="1" target="4" parent="1" source="22">
                    <mxGeometry relative="1" as="geometry">
                        <mxPoint x="55" y="635" as="sourcePoint"/>
                    </mxGeometry>
                </mxCell>
                <mxCell id="30" value="[condition: email sent failed]" style="endArrow=none;startArrow=none;endFill=0;startFill=0;endSize=8;html=1;verticalAlign=bottom;dashed=1;labelBackgroundColor=none;dashPattern=10 10;entryX=1.005;entryY=0.575;entryDx=0;entryDy=0;entryPerimeter=0;" edge="1" parent="1">
                    <mxGeometry width="160" relative="1" as="geometry">
                        <mxPoint x="20" y="1046" as="sourcePoint"/>
                        <mxPoint x="814" y="1040" as="targetPoint"/>
                    </mxGeometry>
                </mxCell>
                <mxCell id="31" value="loop * 3" style="shape=umlFrame;whiteSpace=wrap;html=1;pointerEvents=0;" vertex="1" parent="1">
                    <mxGeometry x="470" y="990" width="260" height="190" as="geometry"/>
                </mxCell>
                <mxCell id="32" value="sendEmail" style="html=1;verticalAlign=bottom;startArrow=oval;endArrow=block;startSize=8;curved=0;rounded=0;entryX=0;entryY=0;entryDx=0;entryDy=5;" edge="1" parent="1">
                    <mxGeometry relative="1" as="geometry">
                        <mxPoint x="560" y="1010" as="sourcePoint"/>
                        <mxPoint x="700" y="1010" as="targetPoint"/>
                    </mxGeometry>
                </mxCell>
                <mxCell id="34" value="returnStatus" style="html=1;verticalAlign=bottom;endArrow=open;dashed=1;endSize=8;curved=0;rounded=0;exitX=0;exitY=1;exitDx=0;exitDy=-5;exitPerimeter=0;" edge="1" parent="1">
                    <mxGeometry relative="1" as="geometry">
                        <mxPoint x="700" y="1070" as="sourcePoint"/>
                        <mxPoint x="560" y="1070" as="targetPoint"/>
                    </mxGeometry>
                </mxCell>
                <mxCell id="36" value="break&lt;div&gt;success&lt;/div&gt;" style="shape=umlFrame;whiteSpace=wrap;html=1;pointerEvents=0;" vertex="1" parent="1">
                    <mxGeometry x="480" y="1090" width="220" height="70" as="geometry"/>
                </mxCell>
                <mxCell id="37" value="returnStatus" style="html=1;verticalAlign=bottom;endArrow=open;dashed=1;endSize=8;curved=0;rounded=0;exitX=0;exitY=1;exitDx=0;exitDy=-5;exitPerimeter=0;" edge="1" parent="1">
                    <mxGeometry relative="1" as="geometry">
                        <mxPoint x="545" y="1140" as="sourcePoint"/>
                        <mxPoint x="270" y="1140" as="targetPoint"/>
                    </mxGeometry>
                </mxCell>
                <mxCell id="38" value="return" style="html=1;verticalAlign=bottom;endArrow=open;dashed=1;endSize=8;curved=0;rounded=0;" edge="1" parent="1" source="9">
                    <mxGeometry relative="1" as="geometry">
                        <mxPoint x="130" y="1160" as="targetPoint"/>
                        <mxPoint x="260" y="1160" as="sourcePoint"/>
                    </mxGeometry>
                </mxCell>
                <mxCell id="40" value="return" style="html=1;verticalAlign=bottom;endArrow=open;dashed=1;endSize=8;curved=0;rounded=0;" edge="1" parent="1" source="9">
                    <mxGeometry relative="1" as="geometry">
                        <mxPoint x="130" y="1000" as="targetPoint"/>
                        <mxPoint x="260" y="1000" as="sourcePoint"/>
                    </mxGeometry>
                </mxCell>
                <mxCell id="41" value="return" style="html=1;verticalAlign=bottom;endArrow=open;dashed=1;endSize=8;curved=0;rounded=0;entryX=0.003;entryY=0.692;entryDx=0;entryDy=0;entryPerimeter=0;" edge="1" parent="1" source="4">
                    <mxGeometry relative="1" as="geometry">
                        <mxPoint x="20" y="1190" as="targetPoint"/>
                        <mxPoint x="123" y="1190" as="sourcePoint"/>
                    </mxGeometry>
                </mxCell>
                <mxCell id="42" value="returnStatus failed" style="html=1;verticalAlign=bottom;endArrow=open;dashed=1;endSize=8;curved=0;rounded=0;exitX=0;exitY=1;exitDx=0;exitDy=-5;exitPerimeter=0;" edge="1" parent="1">
                    <mxGeometry relative="1" as="geometry">
                        <mxPoint x="547.5" y="1230" as="sourcePoint"/>
                        <mxPoint x="272.5" y="1230" as="targetPoint"/>
                    </mxGeometry>
                </mxCell>
                <mxCell id="43" value="return" style="html=1;verticalAlign=bottom;endArrow=open;dashed=1;endSize=8;curved=0;rounded=0;" edge="1" parent="1" source="9">
                    <mxGeometry relative="1" as="geometry">
                        <mxPoint x="130" y="1300" as="targetPoint"/>
                        <mxPoint x="265" y="1300" as="sourcePoint"/>
                    </mxGeometry>
                </mxCell>
                <mxCell id="44" value="error message" style="html=1;verticalAlign=bottom;endArrow=open;dashed=1;endSize=8;curved=0;rounded=0;entryX=0.003;entryY=0.692;entryDx=0;entryDy=0;entryPerimeter=0;" edge="1" parent="1" source="4">
                    <mxGeometry relative="1" as="geometry">
                        <mxPoint x="20" y="1320" as="targetPoint"/>
                        <mxPoint x="125" y="1320" as="sourcePoint"/>
                    </mxGeometry>
                </mxCell>
                <mxCell id="47" value="emailProvider" style="shape=umlLifeline;perimeter=lifelinePerimeter;whiteSpace=wrap;html=1;container=1;dropTarget=0;collapsible=0;recursiveResize=0;outlineConnect=0;portConstraint=eastwest;newEdgeStyle={&quot;curved&quot;:0,&quot;rounded&quot;:0};" vertex="1" parent="1">
                    <mxGeometry x="1100" y="560" width="100" height="650" as="geometry"/>
                </mxCell>
                <mxCell id="48" value="" style="html=1;points=[[0,0,0,0,5],[0,1,0,0,-5],[1,0,0,0,5],[1,1,0,0,-5]];perimeter=orthogonalPerimeter;outlineConnect=0;targetShapes=umlLifeline;portConstraint=eastwest;newEdgeStyle={&quot;curved&quot;:0,&quot;rounded&quot;:0};" vertex="1" parent="47">
                    <mxGeometry x="45" y="80" width="10" height="480" as="geometry"/>
                </mxCell>
                <mxCell id="49" value="verifyEmail()" style="html=1;verticalAlign=bottom;endArrow=block;curved=0;rounded=0;entryX=0;entryY=0;entryDx=0;entryDy=5;entryPerimeter=0;" edge="1" parent="1" target="48">
                    <mxGeometry width="80" relative="1" as="geometry">
                        <mxPoint x="1009.25" y="645" as="sourcePoint"/>
                        <mxPoint x="1135" y="650" as="targetPoint"/>
                    </mxGeometry>
                </mxCell>
                <mxCell id="50" value="handler:server" style="shape=umlLifeline;perimeter=lifelinePerimeter;whiteSpace=wrap;html=1;container=1;dropTarget=0;collapsible=0;recursiveResize=0;outlineConnect=0;portConstraint=eastwest;newEdgeStyle={&quot;curved&quot;:0,&quot;rounded&quot;:0};" vertex="1" parent="1">
                    <mxGeometry x="1240" y="560" width="100" height="650" as="geometry"/>
                </mxCell>
                <mxCell id="51" value="" style="html=1;points=[[0,0,0,0,5],[0,1,0,0,-5],[1,0,0,0,5],[1,1,0,0,-5]];perimeter=orthogonalPerimeter;outlineConnect=0;targetShapes=umlLifeline;portConstraint=eastwest;newEdgeStyle={&quot;curved&quot;:0,&quot;rounded&quot;:0};" vertex="1" parent="50">
                    <mxGeometry x="45" y="110" width="10" height="450" as="geometry"/>
                </mxCell>
                <mxCell id="52" value="verifyEmail()" style="html=1;verticalAlign=bottom;endArrow=open;curved=0;rounded=0;entryX=0;entryY=0;entryDx=0;entryDy=5;entryPerimeter=0;endFill=0;" edge="1" parent="1" source="48" target="51">
                    <mxGeometry width="80" relative="1" as="geometry">
                        <mxPoint x="1170" y="690" as="sourcePoint"/>
                        <mxPoint x="1290" y="690" as="targetPoint"/>
                    </mxGeometry>
                </mxCell>
                <mxCell id="53" value="verifyConfirm:ui" style="shape=umlLifeline;perimeter=lifelinePerimeter;whiteSpace=wrap;html=1;container=1;dropTarget=0;collapsible=0;recursiveResize=0;outlineConnect=0;portConstraint=eastwest;newEdgeStyle={&quot;curved&quot;:0,&quot;rounded&quot;:0};" vertex="1" parent="1">
                    <mxGeometry x="1380" y="560" width="100" height="650" as="geometry"/>
                </mxCell>
                <mxCell id="61" value="" style="html=1;points=[[0,0,0,0,5],[0,1,0,0,-5],[1,0,0,0,5],[1,1,0,0,-5]];perimeter=orthogonalPerimeter;outlineConnect=0;targetShapes=umlLifeline;portConstraint=eastwest;newEdgeStyle={&quot;curved&quot;:0,&quot;rounded&quot;:0};" vertex="1" parent="53">
                    <mxGeometry x="45" y="250" width="10" height="40" as="geometry"/>
                </mxCell>
                <mxCell id="58" value="return reroute link" style="html=1;verticalAlign=bottom;endArrow=open;dashed=1;endSize=8;curved=0;rounded=0;" edge="1" parent="1">
                    <mxGeometry relative="1" as="geometry">
                        <mxPoint x="1285" y="790" as="sourcePoint"/>
                        <mxPoint x="1015" y="790" as="targetPoint"/>
                        <Array as="points">
                            <mxPoint x="1220" y="790"/>
                        </Array>
                    </mxGeometry>
                </mxCell>
                <mxCell id="59" value="open ui" style="html=1;verticalAlign=bottom;endArrow=block;curved=0;rounded=0;" edge="1" parent="1">
                    <mxGeometry width="80" relative="1" as="geometry">
                        <mxPoint x="1015" y="810" as="sourcePoint"/>
                        <mxPoint x="1429.5" y="810" as="targetPoint"/>
                    </mxGeometry>
                </mxCell>
                <mxCell id="60" value="tables[sso]:&lt;br&gt;database" style="shape=umlLifeline;perimeter=lifelinePerimeter;whiteSpace=wrap;html=1;container=1;dropTarget=0;collapsible=0;recursiveResize=0;outlineConnect=0;portConstraint=eastwest;newEdgeStyle={&quot;curved&quot;:0,&quot;rounded&quot;:0};" vertex="1" parent="1">
                    <mxGeometry x="1520" y="560" width="100" height="650" as="geometry"/>
                </mxCell>
                <mxCell id="70" value="" style="html=1;points=[[0,0,0,0,5],[0,1,0,0,-5],[1,0,0,0,5],[1,1,0,0,-5]];perimeter=orthogonalPerimeter;outlineConnect=0;targetShapes=umlLifeline;portConstraint=eastwest;newEdgeStyle={&quot;curved&quot;:0,&quot;rounded&quot;:0};" vertex="1" parent="60">
                    <mxGeometry x="45" y="120" width="10" height="50" as="geometry"/>
                </mxCell>
                <mxCell id="71" value="" style="html=1;points=[[0,0,0,0,5],[0,1,0,0,-5],[1,0,0,0,5],[1,1,0,0,-5]];perimeter=orthogonalPerimeter;outlineConnect=0;targetShapes=umlLifeline;portConstraint=eastwest;newEdgeStyle={&quot;curved&quot;:0,&quot;rounded&quot;:0};" vertex="1" parent="60">
                    <mxGeometry x="45" y="390" width="10" height="50" as="geometry"/>
                </mxCell>
                <mxCell id="62" value="update record to VERIFY" style="html=1;verticalAlign=bottom;endArrow=block;curved=0;rounded=0;endFill=1;" edge="1" parent="1" target="60">
                    <mxGeometry width="80" relative="1" as="geometry">
                        <mxPoint x="1300" y="685" as="sourcePoint"/>
                        <mxPoint x="1430" y="685" as="targetPoint"/>
                    </mxGeometry>
                </mxCell>
                <mxCell id="63" value="update DB success" style="html=1;verticalAlign=bottom;endArrow=open;dashed=1;endSize=8;curved=0;rounded=0;" edge="1" parent="1">
                    <mxGeometry relative="1" as="geometry">
                        <mxPoint x="1570" y="720" as="sourcePoint"/>
                        <mxPoint x="1295" y="720.08" as="targetPoint"/>
                    </mxGeometry>
                </mxCell>
                <mxCell id="66" value="[condition1: email confirmed]" style="endArrow=none;startArrow=none;endFill=0;startFill=0;endSize=8;html=1;verticalAlign=bottom;dashed=1;labelBackgroundColor=none;dashPattern=10 10;entryX=1.002;entryY=0.145;entryDx=0;entryDy=0;entryPerimeter=0;" edge="1" parent="1" target="65">
                    <mxGeometry x="-0.0007" width="160" relative="1" as="geometry">
                        <mxPoint x="1020" y="620" as="sourcePoint"/>
                        <mxPoint x="1790.0000000000002" y="620.0000000000001" as="targetPoint"/>
                        <mxPoint as="offset"/>
                    </mxGeometry>
                </mxCell>
                <mxCell id="67" value="[condition2: email reject]" style="endArrow=none;startArrow=none;endFill=0;startFill=0;endSize=8;html=1;verticalAlign=bottom;dashed=1;labelBackgroundColor=none;dashPattern=10 10;entryX=1.003;entryY=0.492;entryDx=0;entryDy=0;entryPerimeter=0;" edge="1" parent="1">
                    <mxGeometry x="-0.0007" width="160" relative="1" as="geometry">
                        <mxPoint x="1010" y="873" as="sourcePoint"/>
                        <mxPoint x="1983.0899999999997" y="870" as="targetPoint"/>
                        <mxPoint as="offset"/>
                    </mxGeometry>
                </mxCell>
                <mxCell id="68" value="rejectEmail()" style="html=1;verticalAlign=bottom;endArrow=block;curved=0;rounded=0;entryX=0;entryY=0;entryDx=0;entryDy=5;entryPerimeter=0;" edge="1" parent="1">
                    <mxGeometry width="80" relative="1" as="geometry">
                        <mxPoint x="1010" y="900" as="sourcePoint"/>
                        <mxPoint x="1145" y="900" as="targetPoint"/>
                    </mxGeometry>
                </mxCell>
                <mxCell id="69" value="rejectEmail()" style="html=1;verticalAlign=bottom;endArrow=open;curved=0;rounded=0;entryX=0;entryY=0;entryDx=0;entryDy=5;entryPerimeter=0;endFill=0;" edge="1" parent="1">
                    <mxGeometry width="80" relative="1" as="geometry">
                        <mxPoint x="1160" y="930" as="sourcePoint"/>
                        <mxPoint x="1290" y="930" as="targetPoint"/>
                    </mxGeometry>
                </mxCell>
                <mxCell id="72" value="update record to INVALID" style="html=1;verticalAlign=bottom;endArrow=block;curved=0;rounded=0;endFill=1;" edge="1" parent="1">
                    <mxGeometry width="80" relative="1" as="geometry">
                        <mxPoint x="1295" y="960" as="sourcePoint"/>
                        <mxPoint x="1565" y="960" as="targetPoint"/>
                    </mxGeometry>
                </mxCell>
                <mxCell id="73" value="update DB success" style="html=1;verticalAlign=bottom;endArrow=open;dashed=1;endSize=8;curved=0;rounded=0;" edge="1" parent="1">
                    <mxGeometry relative="1" as="geometry">
                        <mxPoint x="1567.5" y="990" as="sourcePoint"/>
                        <mxPoint x="1292.5" y="990.08" as="targetPoint"/>
                    </mxGeometry>
                </mxCell>
                <mxCell id="74" value="return reroute link" style="html=1;verticalAlign=bottom;endArrow=open;dashed=1;endSize=8;curved=0;rounded=0;" edge="1" parent="1">
                    <mxGeometry relative="1" as="geometry">
                        <mxPoint x="1285" y="1010" as="sourcePoint"/>
                        <mxPoint x="1015" y="1010" as="targetPoint"/>
                        <Array as="points">
                            <mxPoint x="1220" y="1010"/>
                        </Array>
                    </mxGeometry>
                </mxCell>
                <mxCell id="75" value="open ui" style="html=1;verticalAlign=bottom;endArrow=block;curved=0;rounded=0;" edge="1" parent="1" target="76">
                    <mxGeometry width="80" relative="1" as="geometry">
                        <mxPoint x="1010" y="1050" as="sourcePoint"/>
                        <mxPoint x="1424.5" y="1050" as="targetPoint"/>
                    </mxGeometry>
                </mxCell>
                <mxCell id="76" value="sorry;ui" style="shape=umlLifeline;perimeter=lifelinePerimeter;whiteSpace=wrap;html=1;container=1;dropTarget=0;collapsible=0;recursiveResize=0;outlineConnect=0;portConstraint=eastwest;newEdgeStyle={&quot;curved&quot;:0,&quot;rounded&quot;:0};" vertex="1" parent="1">
                    <mxGeometry x="1650" y="560" width="100" height="650" as="geometry"/>
                </mxCell>
                <mxCell id="78" value="" style="html=1;points=[[0,0,0,0,5],[0,1,0,0,-5],[1,0,0,0,5],[1,1,0,0,-5]];perimeter=orthogonalPerimeter;outlineConnect=0;targetShapes=umlLifeline;portConstraint=eastwest;newEdgeStyle={&quot;curved&quot;:0,&quot;rounded&quot;:0};" vertex="1" parent="76">
                    <mxGeometry x="45" y="490" width="10" height="50" as="geometry"/>
                </mxCell>
                <mxCell id="79" value="tables[users]:&lt;br&gt;database" style="shape=umlLifeline;perimeter=lifelinePerimeter;whiteSpace=wrap;html=1;container=1;dropTarget=0;collapsible=0;recursiveResize=0;outlineConnect=0;portConstraint=eastwest;newEdgeStyle={&quot;curved&quot;:0,&quot;rounded&quot;:0};" vertex="1" parent="1">
                    <mxGeometry x="1820" y="560" width="100" height="650" as="geometry"/>
                </mxCell>
                <mxCell id="80" value="" style="html=1;points=[[0,0,0,0,5],[0,1,0,0,-5],[1,0,0,0,5],[1,1,0,0,-5]];perimeter=orthogonalPerimeter;outlineConnect=0;targetShapes=umlLifeline;portConstraint=eastwest;newEdgeStyle={&quot;curved&quot;:0,&quot;rounded&quot;:0};" vertex="1" parent="79">
                    <mxGeometry x="45" y="180" width="10" height="50" as="geometry"/>
                </mxCell>
                <mxCell id="82" value="update record to VERIFY" style="html=1;verticalAlign=bottom;endArrow=block;curved=0;rounded=0;endFill=1;" edge="1" parent="1" target="80">
                    <mxGeometry width="80" relative="1" as="geometry">
                        <mxPoint x="1295" y="750" as="sourcePoint"/>
                        <mxPoint x="1565" y="750" as="targetPoint"/>
                    </mxGeometry>
                </mxCell>
                <mxCell id="83" value="update DB success" style="html=1;verticalAlign=bottom;endArrow=open;dashed=1;endSize=8;curved=0;rounded=0;" edge="1" parent="1" source="80">
                    <mxGeometry relative="1" as="geometry">
                        <mxPoint x="1567.5" y="780" as="sourcePoint"/>
                        <mxPoint x="1292.5" y="780.08" as="targetPoint"/>
                    </mxGeometry>
                </mxCell>
            </root>
        </mxGraphModel>
    </diagram>
</mxfile>